# xmcd CD database file
#
# Track frame offsets:
#	183
#	23055
#	49893
#	67690
#	81215
#	96693
#	114693
#	132443
#	152495
#	172810
#	192985
#
# Disc length: 2972 seconds
#
# Revision: 0
# Processed by: cddbd v1.5PL3 Copyright (c) Steve Scherf et al.
# Submitted via: CDex 1.50
#
DISCID=8d0b9a0b
DTITLE=Abbey Lincoln - That's him
DYEAR=1957
DGENRE=Jazz
TTITLE0=Strong man
TTITLE1=Happiness is a thing called Joe
TTITLE2=My man
TTITLE3=Tender as a rose
TTITLE4=That's him
TTITLE5=I must have that man
TTITLE6=I must have that man (Take 3)
TTITLE7=Porgy
TTITLE8=Porgy (Take 1)
TTITLE9=When a women loves a man
TTITLE10=Don't explain
EXTD=YEAR: 1957
EXTT0=
EXTT1=
EXTT2=
EXTT3=
EXTT4=
EXTT5=
EXTT6=
EXTT7=
EXTT8=
EXTT9=
EXTT10=
PLAYORDER=
